name Walk4.mot
datacolumns 19
datarows 30
range 1.75200000 1.78100000
endheader

                time	   L_ground_force_vx	   L_ground_force_vy	   L_ground_force_vz	   L_ground_force_px	   L_ground_force_py	   L_ground_force_pz	   R_ground_force_vx	   R_ground_force_vy	   R_ground_force_vz	   R_ground_force_px	   R_ground_force_py	   R_ground_force_pz	   L_ground_torque_x	   L_ground_torque_y	   L_ground_torque_z	   R_ground_torque_x	   R_ground_torque_y	   R_ground_torque_z	
          1.75200000	          0.00000000	          0.00000000	          0.00000000	          0.00000000	          0.00000000	          0.00000000	         -1.25052708	        695.99569376	         47.43748921	         -0.20334564	          0.00000000	         -0.09747948	          0.00000000	          0.00000000	          0.00000000	          0.00000000	          1.56589690	          0.00000000	
          1.75300000	          0.00000000	          0.00000000	          0.00000000	          0.00000000	          0.00000000	          0.00000000	         -0.79086080	        697.70696462	         47.43311788	         -0.20305255	          0.00000000	         -0.09741092	          0.00000000	          0.00000000	          0.00000000	          0.00000000	          1.54697074	          0.00000000	
          1.75400000	          0.00000000	          0.00000000	          0.00000000	          0.00000000	          0.00000000	          0.00000000	         -0.30863793	        699.48729909	         47.42786605	         -0.20276270	          0.00000000	         -0.09741109	          0.00000000	          0.00000000	          0.00000000	          0.00000000	          1.54092016	          0.00000000	
          1.75500000	          0.00000000	          0.00000000	          0.00000000	          0.00000000	          0.00000000	          0.00000000	          0.16507154	        701.30079472	         47.41128733	         -0.20246371	          0.00000000	         -0.09747658	          0.00000000	          0.00000000	          0.00000000	          0.00000000	          1.55001751	          0.00000000	
          1.75600000	          0.00000000	          0.00000000	          0.00000000	          0.00000000	          0.00000000	          0.00000000	          0.61036542	        703.09732588	         47.38533849	         -0.20215776	          0.00000000	         -0.09759012	          0.00000000	          0.00000000	          0.00000000	          0.00000000	          1.56754930	          0.00000000	
          1.75700000	          0.00000000	          0.00000000	          0.00000000	          0.00000000	          0.00000000	          0.00000000	          1.02829622	        704.83613333	         47.35816049	         -0.20185885	          0.00000000	         -0.09772014	          0.00000000	          0.00000000	          0.00000000	          0.00000000	          1.58248390	          0.00000000	
          1.75800000	          0.00000000	          0.00000000	          0.00000000	          0.00000000	          0.00000000	          0.00000000	          1.43659443	        706.47758985	         47.32371704	         -0.20157467	          0.00000000	         -0.09782456	          0.00000000	          0.00000000	          0.00000000	          0.00000000	          1.58724173	          0.00000000	
          1.75900000	          0.00000000	          0.00000000	          0.00000000	          0.00000000	          0.00000000	          0.00000000	          1.85741302	        708.00596159	         47.26353189	         -0.20129882	          0.00000000	         -0.09785838	          0.00000000	          0.00000000	          0.00000000	          0.00000000	          1.58276485	          0.00000000	
          1.76000000	          0.00000000	          0.00000000	          0.00000000	          0.00000000	          0.00000000	          0.00000000	          2.30366073	        709.47681954	         47.17906105	         -0.20102332	          0.00000000	         -0.09779775	          0.00000000	          0.00000000	          0.00000000	          0.00000000	          1.57780735	          0.00000000	
          1.76100000	          0.00000000	          0.00000000	          0.00000000	          0.00000000	          0.00000000	          0.00000000	          2.76892929	        710.99182898	         47.10576718	         -0.20075182	          0.00000000	         -0.09765669	          0.00000000	          0.00000000	          0.00000000	          0.00000000	          1.58317987	          0.00000000	
          1.76200000	          0.00000000	          0.00000000	          0.00000000	          0.00000000	          0.00000000	          0.00000000	          3.23594684	        712.61076928	         47.07779588	         -0.20049439	          0.00000000	         -0.09747379	          0.00000000	          0.00000000	          0.00000000	          0.00000000	          1.60335547	          0.00000000	
          1.76300000	          0.00000000	          0.00000000	          0.00000000	          0.00000000	          0.00000000	          0.00000000	          3.70258223	        714.31000736	         47.09259084	         -0.20025607	          0.00000000	         -0.09729522	          0.00000000	          0.00000000	          0.00000000	          0.00000000	          1.63030016	          0.00000000	
          1.76400000	          0.00000000	          0.00000000	          0.00000000	          0.00000000	          0.00000000	          0.00000000	          4.19351192	        716.01801838	         47.11964049	         -0.20003711	          0.00000000	         -0.09715955	          0.00000000	          0.00000000	          0.00000000	          0.00000000	          1.64846325	          0.00000000	
          1.76500000	          0.00000000	          0.00000000	          0.00000000	          0.00000000	          0.00000000	          0.00000000	          4.73649543	        717.68105668	         47.12971286	         -0.19983402	          0.00000000	         -0.09708347	          0.00000000	          0.00000000	          0.00000000	          0.00000000	          1.64917730	          0.00000000	
          1.76600000	          0.00000000	          0.00000000	          0.00000000	          0.00000000	          0.00000000	          0.00000000	          5.33545450	        719.30305247	         47.11239747	         -0.19963121	          0.00000000	         -0.09705694	          0.00000000	          0.00000000	          0.00000000	          0.00000000	          1.63743206	          0.00000000	
          1.76700000	          0.00000000	          0.00000000	          0.00000000	          0.00000000	          0.00000000	          0.00000000	          5.97319536	        720.92734964	         47.07255571	         -0.19940514	          0.00000000	         -0.09704894	          0.00000000	          0.00000000	          0.00000000	          0.00000000	          1.62467187	          0.00000000	
          1.76800000	          0.00000000	          0.00000000	          0.00000000	          0.00000000	          0.00000000	          0.00000000	          6.62516193	        722.58473197	         47.02038761	         -0.19914656	          0.00000000	         -0.09702855	          0.00000000	          0.00000000	          0.00000000	          0.00000000	          1.61963162	          0.00000000	
          1.76900000	          0.00000000	          0.00000000	          0.00000000	          0.00000000	          0.00000000	          0.00000000	          7.26654496	        724.26306643	         46.96858885	         -0.19886737	          0.00000000	         -0.09698526	          0.00000000	          0.00000000	          0.00000000	          0.00000000	          1.62540601	          0.00000000	
          1.77000000	          0.00000000	          0.00000000	          0.00000000	          0.00000000	          0.00000000	          0.00000000	          7.87826477	        725.93328537	         46.92563093	         -0.19858711	          0.00000000	         -0.09692956	          0.00000000	          0.00000000	          0.00000000	          0.00000000	          1.64239379	          0.00000000	
          1.77100000	          0.00000000	          0.00000000	          0.00000000	          0.00000000	          0.00000000	          0.00000000	          8.45068838	        727.59756987	         46.88979695	         -0.19832377	          0.00000000	         -0.09688133	          0.00000000	          0.00000000	          0.00000000	          0.00000000	          1.67223081	          0.00000000	
          1.77200000	          0.00000000	          0.00000000	          0.00000000	          0.00000000	          0.00000000	          0.00000000	          8.98993182	        729.28479320	         46.85511523	         -0.19809524	          0.00000000	         -0.09685230	          0.00000000	          0.00000000	          0.00000000	          0.00000000	          1.71303572	          0.00000000	
          1.77300000	          0.00000000	          0.00000000	          0.00000000	          0.00000000	          0.00000000	          0.00000000	          9.52381043	        730.99411142	         46.81910284	         -0.19791564	          0.00000000	         -0.09682928	          0.00000000	          0.00000000	          0.00000000	          0.00000000	          1.75172104	          0.00000000	
          1.77400000	          0.00000000	          0.00000000	          0.00000000	          0.00000000	          0.00000000	          0.00000000	         10.09087320	        732.66937110	         46.78192483	         -0.19777623	          0.00000000	         -0.09677771	          0.00000000	          0.00000000	          0.00000000	          0.00000000	          1.77120114	          0.00000000	
          1.77500000	          0.00000000	          0.00000000	          0.00000000	          0.00000000	          0.00000000	          0.00000000	         10.71900970	        734.24247018	         46.74106937	         -0.19763513	          0.00000000	         -0.09667205	          0.00000000	          0.00000000	          0.00000000	          0.00000000	          1.76581876	          0.00000000	
          1.77600000	          0.00000000	          0.00000000	          0.00000000	          0.00000000	          0.00000000	          0.00000000	         11.40639807	        735.69162302	         46.69498635	         -0.19744545	          0.00000000	         -0.09652202	          0.00000000	          0.00000000	          0.00000000	          0.00000000	          1.74529102	          0.00000000	
          1.77700000	          0.00000000	          0.00000000	          0.00000000	          0.00000000	          0.00000000	          0.00000000	         12.12014306	        737.06040068	         46.64998094	         -0.19719363	          0.00000000	         -0.09636637	          0.00000000	          0.00000000	          0.00000000	          0.00000000	          1.72732739	          0.00000000	
          1.77800000	          0.00000000	          0.00000000	          0.00000000	          0.00000000	          0.00000000	          0.00000000	         12.82256579	        738.43186488	         46.61567500	         -0.19690474	          0.00000000	         -0.09624716	          0.00000000	          0.00000000	          0.00000000	          0.00000000	          1.72744600	          0.00000000	
          1.77900000	          0.00000000	          0.00000000	          0.00000000	          0.00000000	          0.00000000	          0.00000000	         13.49780046	        739.87505010	         46.59684637	         -0.19662056	          0.00000000	         -0.09618312	          0.00000000	          0.00000000	          0.00000000	          0.00000000	          1.74951987	          0.00000000	
          1.78000000	          0.00000000	          0.00000000	          0.00000000	          0.00000000	          0.00000000	          0.00000000	         14.15715679	        741.40440957	         46.59277866	         -0.19637567	          0.00000000	         -0.09616212	          0.00000000	          0.00000000	          0.00000000	          0.00000000	          1.78344615	          0.00000000	
          1.78100000	          0.00000000	          0.00000000	          0.00000000	          0.00000000	          0.00000000	          0.00000000	         14.82466669	        742.97674221	         46.59840256	         -0.19617880	          0.00000000	         -0.09616830	          0.00000000	          0.00000000	          0.00000000	          0.00000000	          1.81455415	          0.00000000	
